# Blender 4.2.1 LTS
# www.blender.org
mtllib baseplate.mtl
o Cube.002
v -105.915329 -2.475160 29.620533
v -78.702179 0.125520 -7.177293
v -105.915329 5.713936 29.620533
v -105.915329 -2.475160 -32.896820
v -78.702179 0.125520 5.671327
v -105.915329 5.713936 -32.896820
v -61.988098 -2.475160 29.620533
v -91.140320 0.125520 -7.177293
v -61.988098 5.713936 29.620533
v -61.988098 -2.475160 -32.896820
v -91.140320 0.125520 5.671327
v -61.988098 5.713936 -32.896820
v -91.140320 5.713936 5.671327
v -91.140320 5.713936 -7.177293
v -78.702179 5.713936 5.671327
v -78.702179 5.713936 -7.177293
v -89.194321 -2.475160 21.077343
v -89.119377 -2.475160 21.792843
v -89.119377 -2.475160 20.361843
v -88.897423 -2.475160 22.480846
v -88.536987 -2.475160 19.039772
v -88.536987 -2.475160 23.114914
v -88.897423 -2.475160 19.673840
v -88.051926 -2.475160 23.670681
v -87.460876 -2.475160 18.027905
v -86.054871 -2.475160 24.674404
v -86.786552 -2.475160 24.465702
v -86.054871 -2.475160 17.480282
v -87.460876 -2.475160 24.126785
v -86.786552 -2.475160 17.688988
v -88.051926 -2.475160 18.484009
v -84.533020 -2.475160 24.674404
v -84.533020 -2.475160 17.480282
v -83.127014 -2.475160 24.126785
v -83.127014 -2.475160 18.027905
v -83.801338 -2.475160 24.465702
v -83.801338 -2.475160 17.688988
v -82.050903 -2.475160 23.114914
v -82.050903 -2.475160 19.039772
v -81.393570 -2.475160 21.077343
v -81.468513 -2.475160 20.361843
v -81.468513 -2.475160 21.792843
v -81.690468 -2.475160 19.673840
v -81.690468 -2.475160 22.480846
v -82.535965 -2.475160 18.484009
v -85.293945 -2.475160 24.744877
v -82.535965 -2.475160 23.670681
v -85.293945 -2.475160 17.409813
v -89.194321 5.713936 21.077343
v -89.119377 5.713936 21.792843
v -89.119377 5.713936 20.361843
v -88.536987 5.713936 23.114914
v -88.897423 5.713936 19.673840
v -88.897423 5.713936 22.480846
v -88.536987 5.713936 19.039772
v -87.460876 5.713936 24.126785
v -88.051926 5.713936 18.484009
v -86.054871 5.713936 17.480282
v -86.054871 5.713936 24.674404
v -86.786552 5.713936 17.688988
v -86.786552 5.713936 24.465702
v -87.460876 5.713936 18.027905
v -88.051926 5.713936 23.670681
v -84.533020 5.713936 24.674404
v -84.533020 5.713936 17.480282
v -83.127014 5.713936 24.126785
v -83.127014 5.713936 18.027905
v -83.801338 5.713936 24.465702
v -83.801338 5.713936 17.688988
v -82.050903 5.713936 23.114914
v -82.050903 5.713936 19.039772
v -81.393570 5.713936 21.077343
v -81.468513 5.713936 20.361843
v -81.468513 5.713936 21.792843
v -81.690468 5.713936 19.673840
v -81.690468 5.713936 22.480846
v -82.535965 5.713936 18.484009
v -85.293945 5.713936 24.744877
v -82.535965 5.713936 23.670681
v -85.293945 5.713936 17.409813
v -89.155121 -2.475160 -24.851143
v -89.080177 -2.475160 -24.135643
v -89.080177 -2.475160 -25.566643
v -88.858223 -2.475160 -23.447639
v -88.497787 -2.475160 -26.888714
v -88.497787 -2.475160 -22.813572
v -88.858223 -2.475160 -26.254646
v -88.012726 -2.475160 -22.257809
v -87.421677 -2.475160 -27.900585
v -86.015671 -2.475160 -21.254082
v -86.747353 -2.475160 -21.462788
v -86.015671 -2.475160 -28.448204
v -87.421677 -2.475160 -21.801704
v -86.747353 -2.475160 -28.239502
v -88.012726 -2.475160 -27.444481
v -84.493820 -2.475160 -21.254082
v -84.493820 -2.475160 -28.448204
v -83.087814 -2.475160 -21.801704
v -83.087814 -2.475160 -27.900585
v -83.762138 -2.475160 -21.462788
v -83.762138 -2.475160 -28.239502
v -82.011703 -2.475160 -22.813572
v -81.846916 -2.475160 -26.598827
v -82.011703 -2.475160 -26.888714
v -81.354370 -2.475160 -24.851143
v -81.429314 -2.475160 -25.566643
v -81.429314 -2.475160 -24.135643
v -81.651268 -2.475160 -26.254646
v -81.651268 -2.475160 -23.447639
v -82.496765 -2.475160 -27.444481
v -82.496765 -2.475160 -22.257809
v -85.254745 -2.475160 -28.518673
v -85.254745 -2.475160 -21.183613
v -89.155121 5.713936 -24.851143
v -89.080177 5.713936 -24.135643
v -89.080177 5.713936 -25.566643
v -88.497787 5.713936 -22.813572
v -88.497787 5.713936 -26.888714
v -88.858223 5.713936 -23.447639
v -88.858223 5.713936 -26.254646
v -87.421677 5.713936 -21.801704
v -87.421677 5.713936 -27.900585
v -86.015671 5.713936 -21.254082
v -86.015671 5.713936 -28.448204
v -86.747353 5.713936 -21.462788
v -86.747353 5.713936 -28.239502
v -88.012726 5.713936 -22.257809
v -88.012726 5.713936 -27.444481
v -84.493820 5.713936 -21.254082
v -84.493820 5.713936 -28.448204
v -83.087814 5.713936 -21.801704
v -83.087814 5.713936 -27.900585
v -83.762138 5.713936 -21.462788
v -83.762138 5.713936 -28.239502
v -82.011703 5.713936 -22.813572
v -82.011703 5.713936 -26.888714
v -81.354370 5.713936 -24.851143
v -81.429314 5.713936 -24.135643
v -81.429314 5.713936 -25.566643
v -81.651268 5.713936 -23.447639
v -81.651268 5.713936 -26.254646
v -82.496765 5.713936 -22.257809
v -82.496765 5.713936 -27.444481
v -85.254745 5.713936 -28.518673
v -85.254745 5.713936 -21.183613
vn -1.0000 -0.0000 -0.0000
vn -0.0000 -0.0000 -1.0000
vn 1.0000 -0.0000 -0.0000
vn -0.0000 -0.0000 1.0000
vn -0.0000 -1.0000 -0.0000
vn -0.0000 1.0000 -0.0000
vn -0.0922 -0.0000 -0.9957
vn -0.2743 -0.0000 -0.9616
vn -0.4491 -0.0000 -0.8935
vn -0.6109 -0.0000 -0.7917
vn -0.7534 -0.0000 -0.6576
vn -0.8694 -0.0000 -0.4942
vn -0.9517 -0.0000 -0.3070
vn -0.9946 -0.0000 -0.1042
vn -0.9946 -0.0000 0.1042
vn -0.9517 -0.0000 0.3070
vn -0.8694 -0.0000 0.4942
vn -0.7534 -0.0000 0.6576
vn -0.6109 -0.0000 0.7917
vn -0.4491 -0.0000 0.8935
vn -0.2743 -0.0000 0.9616
vn -0.0922 -0.0000 0.9957
vn 0.0922 -0.0000 0.9957
vn 0.2743 -0.0000 0.9616
vn 0.4491 -0.0000 0.8935
vn 0.6109 -0.0000 0.7917
vn 0.7534 -0.0000 0.6576
vn 0.8694 -0.0000 0.4942
vn 0.9517 -0.0000 0.3070
vn 0.9946 -0.0000 0.1042
vn 0.9946 -0.0000 -0.1042
vn 0.9517 -0.0000 -0.3070
vn 0.8694 -0.0000 -0.4942
vn 0.7534 -0.0000 -0.6576
vn 0.6109 -0.0000 -0.7917
vn 0.4491 -0.0000 -0.8935
vn 0.2743 -0.0000 -0.9616
vn 0.0922 -0.0000 -0.9957
vt 0.375000 0.000000
vt 0.625000 0.000000
vt 0.625000 0.250000
vt 0.375000 0.250000
vt 0.625000 0.500000
vt 0.375000 0.500000
vt 0.625000 0.750000
vt 0.375000 0.750000
vt 0.625000 1.000000
vt 0.375000 1.000000
vt 0.221853 0.721449
vt 0.223904 0.723985
vt 0.125000 0.750000
vt 0.125000 0.500000
vt 0.224127 0.524026
vt 0.222076 0.526561
vt 0.220813 0.529312
vt 0.220386 0.532174
vt 0.220813 0.535035
vt 0.222076 0.537786
vt 0.224127 0.540322
vt 0.226888 0.542544
vt 0.230252 0.544368
vt 0.234089 0.545723
vt 0.238253 0.546558
vt 0.242584 0.546840
vt 0.246915 0.546558
vt 0.251079 0.545724
vt 0.254917 0.544368
vt 0.258281 0.542544
vt 0.261041 0.540322
vt 0.263092 0.537786
vt 0.264356 0.535035
vt 0.264782 0.532174
vt 0.264356 0.529313
vt 0.263092 0.526561
vt 0.261979 0.525185
vt 0.260818 0.723985
vt 0.262869 0.721449
vt 0.264132 0.718698
vt 0.264559 0.715837
vt 0.264132 0.712976
vt 0.262869 0.710224
vt 0.260818 0.707689
vt 0.258057 0.705466
vt 0.254694 0.703642
vt 0.250856 0.702287
vt 0.246692 0.701452
vt 0.242361 0.701171
vt 0.238030 0.701452
vt 0.233866 0.702287
vt 0.230029 0.703642
vt 0.226665 0.705466
vt 0.223904 0.707689
vt 0.221853 0.710224
vt 0.220590 0.712976
vt 0.220163 0.715837
vt 0.220590 0.718698
vt 0.261041 0.524026
vt 0.258280 0.521803
vt 0.254917 0.519979
vt 0.251079 0.518624
vt 0.246915 0.517789
vt 0.242584 0.517508
vt 0.238254 0.517789
vt 0.234089 0.518624
vt 0.230252 0.519979
vt 0.226888 0.521803
vt 0.258057 0.726207
vt 0.226665 0.726207
vt 0.230029 0.728031
vt 0.233866 0.729386
vt 0.238030 0.730221
vt 0.242361 0.730503
vt 0.246692 0.730221
vt 0.250856 0.729386
vt 0.254694 0.728031
vt 0.773335 0.726207
vt 0.776096 0.723985
vt 0.875000 0.750000
vt 0.720124 0.654230
vt 0.790912 0.654230
vt 0.761970 0.701452
vt 0.757639 0.701171
vt 0.753308 0.701452
vt 0.749144 0.702287
vt 0.745306 0.703642
vt 0.741943 0.705466
vt 0.739182 0.707689
vt 0.737131 0.710224
vt 0.735868 0.712976
vt 0.735441 0.715837
vt 0.735868 0.718698
vt 0.737131 0.721449
vt 0.739182 0.723985
vt 0.741943 0.726207
vt 0.745306 0.728031
vt 0.749144 0.729386
vt 0.753308 0.730221
vt 0.757639 0.730503
vt 0.761970 0.730221
vt 0.766134 0.729386
vt 0.769971 0.728031
vt 0.766134 0.702287
vt 0.778147 0.721449
vt 0.779410 0.718698
vt 0.779837 0.715837
vt 0.779410 0.712976
vt 0.778147 0.710224
vt 0.776096 0.707689
vt 0.773335 0.705466
vt 0.769971 0.703642
vt 0.775873 0.524026
vt 0.875000 0.500000
vt 0.790912 0.602850
vt 0.720124 0.602850
vt 0.753085 0.546558
vt 0.757416 0.546840
vt 0.761746 0.546558
vt 0.765911 0.545723
vt 0.769748 0.544368
vt 0.773112 0.542544
vt 0.775873 0.540322
vt 0.777924 0.537786
vt 0.779187 0.535035
vt 0.779614 0.532174
vt 0.779187 0.529313
vt 0.777924 0.526561
vt 0.773112 0.521803
vt 0.769748 0.519979
vt 0.765911 0.518624
vt 0.761747 0.517790
vt 0.757416 0.517508
vt 0.753085 0.517790
vt 0.748921 0.518624
vt 0.745083 0.519979
vt 0.741720 0.521803
vt 0.738959 0.524026
vt 0.736908 0.526561
vt 0.735645 0.529313
vt 0.735218 0.532174
vt 0.735645 0.535035
vt 0.736908 0.537786
vt 0.738959 0.540322
vt 0.741720 0.542544
vt 0.745083 0.544368
vt 0.748921 0.545723
vt 0.449219 0.250000
vt 0.449219 0.000000
vt 0.449219 0.500000
vt 0.449219 0.750000
vt 0.449219 1.000000
vt 0.968750 0.771408
vt 1.000000 0.771408
vt 1.000000 0.677326
vt 0.968750 0.677326
vt 0.937500 0.771408
vt 0.937500 0.677326
vt 0.906250 0.771408
vt 0.906250 0.677326
vt 0.875000 0.771408
vt 0.875000 0.677326
vt 0.843750 0.771408
vt 0.843750 0.677326
vt 0.812500 0.771408
vt 0.812500 0.677326
vt 0.781250 0.771408
vt 0.781250 0.677326
vt 0.750000 0.771408
vt 0.750000 0.677326
vt 0.718750 0.771408
vt 0.718750 0.677326
vt 0.687500 0.771408
vt 0.687500 0.677326
vt 0.656250 0.771408
vt 0.656250 0.677326
vt 0.625000 0.771408
vt 0.625000 0.677326
vt 0.593750 0.771408
vt 0.593750 0.677326
vt 0.562500 0.677326
vt 0.562500 0.771408
vt 0.531250 0.677326
vt 0.531250 0.771408
vt 0.500000 0.677326
vt 0.500000 0.771408
vt 0.468750 0.677326
vt 0.468750 0.771408
vt 0.437500 0.677326
vt 0.437500 0.771408
vt 0.406250 0.677326
vt 0.406250 0.771408
vt 0.375000 0.677326
vt 0.375000 0.771408
vt 0.343750 0.677326
vt 0.343750 0.771408
vt 0.312500 0.677326
vt 0.312500 0.771408
vt 0.281250 0.677326
vt 0.281250 0.771408
vt 0.250000 0.677326
vt 0.250000 0.771408
vt 0.218750 0.677326
vt 0.218750 0.771408
vt 0.187500 0.677326
vt 0.187500 0.771408
vt 0.156250 0.677326
vt 0.156250 0.771408
vt 0.125000 0.677326
vt 0.125000 0.771408
vt 0.093750 0.677326
vt 0.093750 0.771408
vt 0.062500 0.771408
vt 0.062500 0.677326
vt 0.031250 0.771408
vt 0.031250 0.677326
vt 0.000000 0.771408
vt 0.000000 0.677326
vt 0.968750 0.677326
vt 0.670537 0.771408
s 0
f 1/1/1 3/2/1 6/3/1 4/4/1
f 4/4/2 6/3/2 12/5/2 10/6/2
f 10/6/3 12/5/3 9/7/3 7/8/3
f 7/8/4 9/7/4 3/9/4 1/10/4
f 20/11/5 22/12/5 1/13/5 4/14/5 85/15/5 87/16/5 83/17/5 81/18/5 82/19/5 84/20/5 86/21/5 88/22/5 93/23/5 91/24/5 90/25/5 113/26/5 96/27/5 100/28/5 98/29/5 111/30/5 102/31/5 109/32/5 107/33/5 105/34/5 106/35/5 108/36/5 103/37/5 10/6/5 7/8/5 38/38/5 44/39/5 42/40/5 40/41/5 41/42/5 43/43/5 39/44/5 45/45/5 35/46/5 37/47/5 33/48/5 48/49/5 28/50/5 30/51/5 25/52/5 31/53/5 21/54/5 23/55/5 19/56/5 17/57/5 18/58/5
f 85/15/5 4/14/5 10/6/5 103/37/5 104/59/5 110/60/5 99/61/5 101/62/5 97/63/5 112/64/5 92/65/5 94/66/5 89/67/5 95/68/5
f 47/69/5 38/38/5 7/8/5 1/13/5 22/12/5 24/70/5 29/71/5 27/72/5 26/73/5 46/74/5 32/75/5 36/76/5 34/77/5
f 63/78/6 52/79/6 3/80/6 9/7/6 15/81/6 13/82/6 58/83/6 80/84/6 65/85/6 69/86/6 67/87/6 77/88/6 71/89/6 75/90/6 73/91/6 72/92/6 74/93/6 76/94/6 70/95/6 79/96/6 66/97/6 68/98/6 64/99/6 78/100/6 59/101/6 61/102/6 56/103/6
f 60/104/6 58/83/6 13/82/6 3/80/6 52/79/6 54/105/6 50/106/6 49/107/6 51/108/6 53/109/6 55/110/6 57/111/6 62/112/6
f 118/113/6 6/114/6 3/80/6 13/82/6 14/115/6 16/116/6 129/117/6 145/118/6 123/119/6 125/120/6 121/121/6 127/122/6 117/123/6 119/124/6 115/125/6 114/126/6 116/127/6 120/128/6
f 129/117/6 16/116/6 15/81/6 9/7/6 12/5/6 6/114/6 118/113/6 128/129/6 122/130/6 126/131/6 124/132/6 144/133/6 130/134/6 134/135/6 132/136/6 143/137/6 136/138/6 141/139/6 139/140/6 137/141/6 138/142/6 140/143/6 135/144/6 142/145/6 131/146/6 133/147/6
f 2/1/1 5/4/1 15/148/1 16/149/1
f 5/4/2 11/6/2 13/150/2 15/148/2
f 13/150/3 11/6/3 8/8/3 14/151/3
f 14/151/4 8/8/4 2/10/4 16/152/4
f 5/14/6 2/13/6 8/8/6 11/6/6
f 32/153/7 46/154/7 78/155/7 64/156/7
f 36/157/8 32/153/8 64/156/8 68/158/8
f 34/159/9 36/157/9 68/158/9 66/160/9
f 47/161/10 34/159/10 66/160/10 79/162/10
f 38/163/11 47/161/11 79/162/11 70/164/11
f 44/165/12 38/163/12 70/164/12 76/166/12
f 42/167/13 44/165/13 76/166/13 74/168/13
f 40/169/14 42/167/14 74/168/14 72/170/14
f 41/171/15 40/169/15 72/170/15 73/172/15
f 43/173/16 41/171/16 73/172/16 75/174/16
f 39/175/17 43/173/17 75/174/17 71/176/17
f 45/177/18 39/175/18 71/176/18 77/178/18
f 35/179/19 45/177/19 77/178/19 67/180/19
f 69/181/20 37/182/20 35/179/20 67/180/20
f 65/183/21 33/184/21 37/182/21 69/181/21
f 80/185/22 48/186/22 33/184/22 65/183/22
f 58/187/23 28/188/23 48/186/23 80/185/23
f 60/189/24 30/190/24 28/188/24 58/187/24
f 62/191/25 25/192/25 30/190/25 60/189/25
f 57/193/26 31/194/26 25/192/26 62/191/26
f 55/195/27 21/196/27 31/194/27 57/193/27
f 53/197/28 23/198/28 21/196/28 55/195/28
f 51/199/29 19/200/29 23/198/29 53/197/29
f 49/201/30 17/202/30 19/200/30 51/199/30
f 50/203/31 18/204/31 17/202/31 49/201/31
f 54/205/32 20/206/32 18/204/32 50/203/32
f 52/207/33 22/208/33 20/206/33 54/205/33
f 63/209/34 24/210/34 22/208/34 52/207/34
f 56/211/35 29/212/35 24/210/35 63/209/35
f 27/213/36 29/212/36 56/211/36 61/214/36
f 26/215/37 27/213/37 61/214/37 59/216/37
f 46/217/38 26/215/38 59/216/38 78/218/38
f 96/153/7 113/154/7 145/155/7 129/219/7
f 100/157/8 96/153/8 129/219/8 133/158/8
f 98/159/9 100/157/9 133/158/9 131/160/9
f 111/161/10 98/159/10 131/160/10 142/162/10
f 102/163/11 111/161/11 142/162/11 135/164/11
f 109/165/12 102/163/12 135/164/12 140/166/12
f 107/167/13 109/165/13 140/166/13 138/168/13
f 105/169/14 107/167/14 138/168/14 137/170/14
f 106/171/15 105/169/15 137/170/15 139/172/15
f 108/173/16 106/171/16 139/172/16 141/174/16
f 104/175/17 103/220/17 108/173/17 141/174/17 136/176/17
f 110/177/18 104/175/18 136/176/18 143/178/18
f 99/179/19 110/177/19 143/178/19 132/180/19
f 134/181/20 101/182/20 99/179/20 132/180/20
f 130/183/21 97/184/21 101/182/21 134/181/21
f 144/185/22 112/186/22 97/184/22 130/183/22
f 124/187/23 92/188/23 112/186/23 144/185/23
f 126/189/24 94/190/24 92/188/24 124/187/24
f 122/191/25 89/192/25 94/190/25 126/189/25
f 128/193/26 95/194/26 89/192/26 122/191/26
f 118/195/27 85/196/27 95/194/27 128/193/27
f 120/197/28 87/198/28 85/196/28 118/195/28
f 116/199/29 83/200/29 87/198/29 120/197/29
f 114/201/30 81/202/30 83/200/30 116/199/30
f 115/203/31 82/204/31 81/202/31 114/201/31
f 119/205/32 84/206/32 82/204/32 115/203/32
f 117/207/33 86/208/33 84/206/33 119/205/33
f 127/209/34 88/210/34 86/208/34 117/207/34
f 121/211/35 93/212/35 88/210/35 127/209/35
f 91/213/36 93/212/36 121/211/36 125/214/36
f 90/215/37 91/213/37 125/214/37 123/216/37
f 113/217/38 90/215/38 123/216/38 145/218/38
